<svg width="40" height="40" viewBox="0 0 40 40" fill="none" xmlns="http://www.w3.org/2000/svg">
<rect width="40" height="40" rx="6" fill="#300D4F"/>
<path d="M20.222 33.5329V26.7285C20.2219 26.7139 20.2298 26.7004 20.2426 26.6934L28.9947 21.6442C29.0075 21.6373 29.0154 21.6237 29.0152 21.6091V19.6742C29.0154 19.6597 29.0077 19.6461 28.9951 19.6389C28.9825 19.6316 28.967 19.6317 28.9544 19.6391L20.2829 24.6412C20.2703 24.6486 20.2548 24.6487 20.2422 24.6415C20.2296 24.6342 20.2219 24.6207 20.222 24.6061V22.6703C20.222 22.6558 20.2299 22.6424 20.2426 22.6352L28.9947 17.5861C29.0071 17.5787 29.0149 17.5655 29.0152 17.551V15.6161C29.0149 15.6017 29.0071 15.5886 28.9947 15.5814C28.9823 15.5743 28.967 15.5741 28.9544 15.581L20.2829 20.5831C20.2703 20.5905 20.2548 20.5906 20.2422 20.5833C20.2296 20.576 20.2219 20.5625 20.222 20.548V18.613C20.2219 18.5984 20.2298 18.5849 20.2426 18.5779L28.9947 13.5314C29.0074 13.5242 29.0153 13.5108 29.0152 13.4963V11.5348C29.0144 11.5062 28.9993 11.4798 28.975 11.4646L20.2623 6.43944C20.2374 6.42489 20.2066 6.42489 20.1818 6.43944L18.5244 7.39536C18.5117 7.40247 18.5038 7.41589 18.5038 7.43044C18.5038 7.445 18.5117 7.45841 18.5244 7.46553L27.196 12.4676C27.2082 12.4751 27.2157 12.4884 27.2157 12.5027C27.2157 12.517 27.2082 12.5303 27.196 12.5378L25.5386 13.4937C25.5132 13.5074 25.4826 13.5074 25.4572 13.4937L16.7454 8.46851C16.7189 8.45323 16.6862 8.45323 16.6597 8.46851L15.0074 9.42357C14.9947 9.43069 14.9869 9.44411 14.9869 9.45866C14.9869 9.47322 14.9947 9.48663 15.0074 9.49375L23.6773 14.4967C23.69 14.5038 23.6979 14.5172 23.6979 14.5318C23.6979 14.5463 23.69 14.5597 23.6773 14.5669L22.0208 15.5228C21.9943 15.5381 21.9616 15.5381 21.9351 15.5228L13.2276 10.4967C13.2011 10.4814 13.1684 10.4814 13.1419 10.4967L11.4288 11.4877V28.5077C11.4286 28.5223 11.4366 28.5358 11.4494 28.5427L13.1265 29.5106C13.139 29.5181 13.1546 29.5182 13.1672 29.5109C13.1798 29.5036 13.1875 29.4901 13.1873 29.4756V12.5729C13.1871 12.5583 13.1948 12.5448 13.2074 12.5375C13.22 12.5303 13.2356 12.5304 13.2481 12.5378L14.9261 13.5057C14.9384 13.513 14.946 13.5264 14.9458 13.5408V30.5367C14.9458 30.5513 14.9536 30.5647 14.9663 30.5718L16.6434 31.5397C16.6562 31.5471 16.672 31.5471 16.6847 31.5396C16.6975 31.5322 16.7052 31.5185 16.7051 31.5038V14.602C16.7049 14.5874 16.7126 14.5739 16.7252 14.5666C16.7378 14.5593 16.7534 14.5594 16.7659 14.5669L18.443 15.5339C18.4557 15.541 18.4636 15.5544 18.4636 15.569V32.5658C18.4637 32.5801 18.4712 32.5933 18.4833 32.6009L20.1655 33.5679C20.1777 33.5733 20.1917 33.5724 20.2031 33.5653C20.2144 33.5583 20.2215 33.5461 20.222 33.5329Z" fill="white"/>
</svg>
